<?xml version="1.0" encoding="UTF-8"?>
<svg version="1.1" xmlns="http://www.w3.org/2000/svg" width="180" height="180">
<path d="M0 0 C59.4 0 118.8 0 180 0 C180 59.4 180 118.8 180 180 C120.6 180 61.2 180 0 180 C0 120.6 0 61.2 0 0 Z " fill="#F8FAFA" transform="translate(0,0)"/>
<path d="M0 0 C1.42165066 -0.01152777 2.84325777 -0.03199271 4.26464844 -0.06152344 C18.95717662 -0.36619936 18.95717662 -0.36619936 24.76269531 4.29516602 C28.39770323 8.30299526 29.52309943 11.69127543 29.28222656 16.99047852 C27.84022327 23.38733522 22.22220572 27.84447838 17.76269531 32.29516602 C16.01617102 34.05255074 14.27009889 35.81038491 12.52441406 37.56860352 C11.01610302 39.08429848 9.50730482 40.59950665 7.99829102 42.11450195 C6.97068961 43.14712712 5.94398817 44.18064869 4.91821289 45.21508789 C-0.42504368 50.60209242 -5.78383132 55.90706276 -11.55493164 60.84204102 C-13.86101788 62.83388912 -16.02447255 64.94977559 -18.17480469 67.10766602 C-18.92632812 67.85661133 -19.67785156 68.60555664 -20.45214844 69.37719727 C-23.52102395 72.67439175 -23.45296763 75.05364503 -23.54980469 79.48266602 C-23.5871875 80.5899707 -23.62457031 81.69727539 -23.66308594 82.83813477 C-22.74542243 90.2888889 -17.83462234 95.12431571 -12.67871094 100.14672852 C-12.05254379 100.76865082 -11.42637665 101.39057312 -10.78123474 102.03134155 C-8.79441535 104.0015019 -6.79740743 105.96094621 -4.79980469 107.92016602 C-3.46252118 109.24238017 -2.12592603 110.5652909 -0.79003906 111.88891602 C2.20982704 114.85901992 5.21688637 117.82164766 8.22872925 120.77960205 C9.66316589 122.19683059 11.08277894 123.6290189 12.5012207 125.06225586 C14.78754268 127.39523847 14.78754268 127.39523847 17.63769531 129.60766602 C23.02058801 134.01438646 29.08101547 139.67409426 30.13378906 146.81079102 C30.30071678 153.68428544 29.44192593 158.14464599 24.76269531 163.29516602 C23.97185547 164.1981543 23.97185547 164.1981543 23.16503906 165.11938477 C16.10986962 171.33430816 6.05456533 170.06476454 -2.77124023 169.55029297 C-21.00116816 167.66431389 -32.06161651 154.78504572 -43.23730469 141.51391602 C-46.90259302 137.44773678 -50.85361887 133.65438839 -54.7487793 129.80981445 C-58.08924145 126.49816019 -61.2971926 123.17248263 -64.29980469 119.54516602 C-67.43341431 115.88663702 -70.35612695 113.7962404 -75.21386719 112.95141602 C-79.26964092 112.64761274 -81.00203799 113.10495038 -84.17480469 115.67016602 C-87.20009412 119.52053438 -87.36365309 121.41309547 -87.41308594 126.26391602 C-87.43693359 127.47563477 -87.46078125 128.68735352 -87.48535156 129.93579102 C-87.52779571 132.47729539 -87.55932629 135.01900917 -87.57910156 137.56079102 C-87.79412647 147.04188943 -88.86666882 155.14494511 -95.67480469 162.17016602 C-104.69472806 169.22271238 -116.16441139 170.37778801 -127.23730469 169.29516602 C-134.91122477 167.97780974 -141.13889845 162.51717012 -145.65917969 156.35766602 C-150.50214976 148.21586126 -150.63416381 137.40941797 -148.55371094 128.30297852 C-145.87831933 121.17600171 -141.65926327 115.20136862 -135.81542969 110.33813477 C-129.80581102 105.15445979 -124.31055724 99.43748809 -118.73730469 93.79516602 C-116.56327695 91.59419548 -114.38571403 89.39680814 -112.20605469 87.20141602 C-111.72559692 86.71265991 -111.24513916 86.22390381 -110.75012207 85.72033691 C-108.06922972 83.02076557 -105.31282264 80.46868114 -102.42871094 77.98657227 C-97.80312401 73.97846078 -93.50942277 69.67517781 -89.20605469 65.32641602 C-88.3707019 64.48727661 -87.53534912 63.64813721 -86.67468262 62.78356934 C-84.02643383 60.12319702 -81.38146062 57.45960589 -78.73730469 54.79516602 C-75.25067867 51.28179328 -71.76065543 47.77184631 -68.26855469 44.26391602 C-67.48186401 43.468927 -66.69517334 42.67393799 -65.88464355 41.8548584 C-61.72010695 37.67208652 -57.46742704 33.6785294 -52.99356079 29.82879639 C-50.73942307 27.86039664 -48.63490896 25.77300938 -46.54589844 23.63110352 C-45.34610352 22.41293945 -45.34610352 22.41293945 -44.12207031 21.17016602 C-42.48474197 19.49755606 -40.84933674 17.82306149 -39.21582031 16.14672852 C-27.0513066 3.81530864 -17.21582898 0.09714137 0 0 Z " fill="#0F8CF4" transform="translate(150.2373046875,5.704833984375)"/>
<path d="M0 0 C5.37834744 0.10443393 9.83706523 2.33187451 14.1875 5.375 C21.18920087 12.77275668 21.42951812 18.82583855 21.48266602 28.6484375 C21.49411127 30.11858807 21.51444316 31.58869959 21.54418945 33.05859375 C21.75091542 43.27709276 21.44208248 52.35779863 14.7421875 60.66015625 C13.85789063 61.57667969 12.97359375 62.49320313 12.0625 63.4375 C11.57587891 63.94659912 11.08925781 64.45569824 10.58789062 64.98022461 C6.98208702 68.70383811 3.16182159 72.15043147 -0.7421875 75.55859375 C-6.00767345 80.28285379 -10.89964861 85.42303789 -15.86132812 90.46118164 C-20.12939061 94.77462092 -24.47630696 98.88199337 -29.08007812 102.83398438 C-31.33222169 104.83730036 -33.29992233 107.01713695 -35.25 109.3125 C-36.41892779 110.68273043 -37.60080566 112.04243839 -38.8125 113.375 C-39.1425 113.375 -39.4725 113.375 -39.8125 113.375 C-39.88217922 102.83900703 -39.93540208 92.30306938 -39.96793652 81.76689243 C-39.98355575 76.87389009 -40.00472534 71.98104603 -40.03881836 67.08813477 C-40.07154568 62.36134738 -40.08938114 57.63471174 -40.09713173 52.90781975 C-40.10265131 51.10940095 -40.11342947 49.31098994 -40.12969017 47.51263618 C-40.23148683 35.78205264 -40.1725974 26.1884632 -32.8125 16.375 C-32.235 15.55 -31.6575 14.725 -31.0625 13.875 C-22.55679858 4.42422064 -12.34180426 1.21394796 0 0 Z " fill="#020414" transform="translate(40.8125,5.625)"/>
<path d="M0 0 C3.78496526 2.8708418 7.42487053 5.87259703 11 9 C8 10 8 10 4.125 9.75 C0.50053251 9.68325106 0.10658032 9.91382868 -2.9375 12.375 C-5.96278943 16.22536837 -6.1263484 18.11792946 -6.17578125 22.96875 C-6.19962891 24.18046875 -6.22347656 25.3921875 -6.24804688 26.640625 C-6.29049103 29.18212938 -6.3220216 31.72384316 -6.34179688 34.265625 C-6.55682179 43.74672341 -7.62936413 51.84977909 -14.4375 58.875 C-23.45742337 65.92754637 -34.92710671 67.08262199 -46 66 C-53.67392008 64.68264372 -59.90159376 59.2220041 -64.421875 53.0625 C-66.1697867 50.12398178 -67.2601848 47.310673 -68 44 C-68.20625 43.25105469 -68.4125 42.50210938 -68.625 41.73046875 C-69.22853813 37.63772581 -69.15382743 34.59487378 -66.65234375 31.13720703 C-62.46391956 26.38468129 -57.75920964 22.16911896 -53 18 C-52.18789063 17.27554688 -51.37578125 16.55109375 -50.5390625 15.8046875 C-49.30992041 14.72605261 -48.0697979 13.65973345 -46.81640625 12.609375 C-44.60112885 10.64659158 -42.60368393 8.51771795 -40.5625 6.375 C-30.00603582 -4.32757442 -13.32814487 -8.84673031 0 0 Z " fill="#010414" transform="translate(69,109)"/>
<path d="M0 0 C-1.33850657 3.58347013 -3.61754704 5.56930133 -6.44482422 8.06005859 C-11.80611536 12.7620372 -11.80611536 12.7620372 -14.859375 19.01953125 C-14.88626261 23.93324124 -13.95793802 28.47226832 -12 33 C-12.99 33.495 -12.99 33.495 -14 34 C-16.79051488 27.83761298 -19.29710042 21.64518336 -17 15 C-5.86783042 0 -5.86783042 0 0 0 Z " fill="#070E1E" transform="translate(18,127)"/>
<path d="M0 0 C0.33 0 0.66 0 1 0 C1 3.3 1 6.6 1 10 C1.99 10.33 2.98 10.66 4 11 C2.68 12.32 1.36 13.64 0 15 C0 10.05 0 5.1 0 0 Z " fill="#0A0C18" transform="translate(1,104)"/>
<path d="M0 0 C0.99 0.33 1.98 0.66 3 1 C2.34 3.97 1.68 6.94 1 10 C0.67 10 0.34 10 0 10 C0 6.7 0 3.4 0 0 Z " fill="#DCDDDE" transform="translate(0,30)"/>
</svg>
